ply
format ascii 1.0
comment this is a simple file
obj_info any data, in one line of free form text
element vertex 20
property float x
property float y
property float z
element face 10
property list uchar int vertex_indices
end_header
    130.000000 165.000000 65.000000 
    82.000000 165.000000 225.000000 
    240.000000 165.000000 272.000000 
    290.000000 165.000000 114.000000  
    290.000000 0.000000 114.000000 
    290.000000 165.000000 114.000000 
    240.000000 165.000000 272.000000 
    240.000000 0.000000 272.000000  
    130.000000 0.000000 65.000000 
    130.000000 165.000000 65.000000 
    290.000000 165.000000 114.000000 
    290.000000 0.000000 114.000000  
    82.000000 0.000000 225.000000 
    82.000000 165.000000 225.000000 
    130.000000 165.000000 65.000000 
    130.000000 0.000000 65.000000  
    240.000000 0.000000 272.000000 
    240.000000 165.000000 272.000000 
    82.000000 165.000000 225.000000 
    82.000000 0.000000 225.000000  
    3 0 2 1 
    3 0 3 2 
    3 4 6 5 
    3 4 7 6 
    3 8 10 9 
    3 8 11 10
    3 12 14 13 
    3 12 15 14 
    3 16 18 17 
    3 16 19 18 
