ply
format ascii 1.0
comment this is a simple file
obj_info any data, in one line of free form text
element vertex 20
property float x
property float y
property float z
element face 10
property list uchar int vertex_indices
end_header
    423.000000 330.000000 247.000000 
    265.000000 330.000000 296.000000 
    314.000000 330.000000 456.000000 
    472.000000 330.000000 406.000000
    423.000000 0.000000 247.000000 
    423.000000 330.000000 247.000000 
    472.000000 330.000000 406.000000 
    472.000000 0.000000 406.000000
    472.000000 0.000000 406.000000 
    472.000000 330.000000 406.000000 
    314.000000 330.000000 456.000000 
    314.000000 0.000000 456.000000
    314.000000 0.000000 456.000000 
    314.000000 330.000000 456.000000 
    265.000000 330.000000 296.000000 
    265.000000 0.000000 296.000000
    265.000000 0.000000 296.000000 
    265.000000 330.000000 296.000000 
    423.000000 330.000000 247.000000 
    423.000000 0.000000 247.000000 
    3 0 2 1 
    3 0 3 2 
    3 4 6 5 
    3 4 7 6 
    3 8 10 11 
    3 8 11 10 
    3 12 14 13 
    3 12 15 14 
    3 16 18 17 
    3 16 19 18 
